<svg xmlns="http://www.w3.org/2000/svg" xmlns:xlink="http://www.w3.org/1999/xlink" width="2000" zoomAndPan="magnify" viewBox="0 0 1500 1499.999933" height="2000" preserveAspectRatio="xMidYMid meet" version="1.0"><defs><g/><clipPath id="ec648fbb4e"><rect x="0" width="593" y="0" height="1271"/></clipPath><clipPath id="31137c28d7"><rect x="0" width="701" y="0" height="1271"/></clipPath><clipPath id="730997e676"><path d="M 242.230469 597.316406 L 496.65625 597.316406 L 496.65625 962 L 242.230469 962 Z M 242.230469 597.316406 " clip-rule="nonzero"/></clipPath><clipPath id="a1768872f5"><path d="M 336.683594 597.316406 L 496.65625 597.316406 L 402.203125 961.714844 L 242.230469 961.714844 Z M 336.683594 597.316406 " clip-rule="nonzero"/></clipPath><clipPath id="dd11f2b8ff"><path d="M 0.230469 0.316406 L 254.65625 0.316406 L 254.65625 364.917969 L 0.230469 364.917969 Z M 0.230469 0.316406 " clip-rule="nonzero"/></clipPath><clipPath id="dfb823c5f3"><path d="M 94.683594 0.316406 L 254.65625 0.316406 L 160.203125 364.714844 L 0.230469 364.714844 Z M 94.683594 0.316406 " clip-rule="nonzero"/></clipPath><clipPath id="e5694676f1"><rect x="0" width="255" y="0" height="365"/></clipPath><clipPath id="0d9d57613e"><path d="M 918 604 L 1175 604 L 1175 715 L 918 715 Z M 918 604 " clip-rule="nonzero"/></clipPath><clipPath id="598e0daf7a"><path d="M 1132.957031 550.386719 L 1174.710938 714.851562 L 960.136719 769.324219 L 918.382812 604.859375 Z M 1132.957031 550.386719 " clip-rule="nonzero"/></clipPath><clipPath id="bdbf7fc779"><path d="M 1147.058594 605.933594 L 1174.710938 714.851562 L 946.320312 713.707031 L 918.671875 604.789062 Z M 1147.058594 605.933594 " clip-rule="nonzero"/></clipPath><clipPath id="c3fe450ff5"><path d="M 0.480469 0.558594 L 256.800781 0.558594 L 256.800781 110.960938 L 0.480469 110.960938 Z M 0.480469 0.558594 " clip-rule="nonzero"/></clipPath><clipPath id="e0de62ebab"><path d="M 214.957031 -53.613281 L 256.710938 110.851562 L 42.136719 165.324219 L 0.382812 0.859375 Z M 214.957031 -53.613281 " clip-rule="nonzero"/></clipPath><clipPath id="2de895a727"><path d="M 229.058594 1.933594 L 256.710938 110.851562 L 28.320312 109.707031 L 0.671875 0.789062 Z M 229.058594 1.933594 " clip-rule="nonzero"/></clipPath><clipPath id="fff226be5e"><rect x="0" width="257" y="0" height="111"/></clipPath></defs><rect x="-150" width="1800" fill="#ffffff" y="-149.999993" height="1799.99992" fill-opacity="1"/><rect x="-150" width="1800" fill="#1e1c1c" y="-149.999993" height="1799.99992" fill-opacity="1"/><g transform="matrix(1, 0, 0, 1, 210, 19)"><g clip-path="url(#ec648fbb4e)"><g fill="#ffffff" fill-opacity="1"><g transform="translate(10.373864, 936.592874)"><g><path d="M 73.609375 0 L 73.609375 -613.4375 L 347.90625 -613.4375 C 410.414062 -613.4375 460.070312 -598.535156 496.875 -568.734375 C 533.6875 -538.941406 552.09375 -498.925781 552.09375 -448.6875 C 552.09375 -420.0625 545.664062 -394.0625 532.8125 -370.6875 C 519.957031 -347.320312 501.847656 -328.921875 478.484375 -315.484375 C 507.691406 -302.628906 530.328125 -283.640625 546.390625 -258.515625 C 562.460938 -233.398438 570.5 -204.484375 570.5 -171.765625 C 570.5 -137.296875 561.734375 -107.207031 544.203125 -81.5 C 526.679688 -55.789062 502.289062 -35.78125 471.03125 -21.46875 C 439.78125 -7.15625 403.414062 0 361.9375 0 Z M 211.203125 -110.421875 L 340.890625 -110.421875 C 368.347656 -110.421875 389.671875 -116.847656 404.859375 -129.703125 C 420.054688 -142.554688 427.65625 -160.664062 427.65625 -184.03125 C 427.65625 -207.394531 420.054688 -225.503906 404.859375 -238.359375 C 389.671875 -251.210938 368.347656 -257.640625 340.890625 -257.640625 L 211.203125 -257.640625 Z M 211.203125 -363.6875 L 326.875 -363.6875 C 353.75 -363.6875 374.34375 -369.816406 388.65625 -382.078125 C 402.96875 -394.347656 410.125 -411.585938 410.125 -433.796875 C 410.125 -455.992188 402.96875 -473.078125 388.65625 -485.046875 C 374.34375 -497.023438 353.75 -503.015625 326.875 -503.015625 L 211.203125 -503.015625 Z M 211.203125 -363.6875 "/></g></g></g></g></g><g transform="matrix(1, 0, 0, 1, 638, 12)"><g clip-path="url(#31137c28d7)"><g fill="#ffffff" fill-opacity="1"><g transform="translate(6.07921, 936.700581)"><g><path d="M 359.296875 12.265625 C 296.785156 12.265625 241.285156 -1.316406 192.796875 -28.484375 C 144.304688 -55.648438 106.332031 -93.1875 78.875 -141.09375 C 51.414062 -189 37.6875 -244.207031 37.6875 -306.71875 C 37.6875 -369.226562 51.269531 -424.4375 78.4375 -472.34375 C 105.601562 -520.25 143.285156 -557.785156 191.484375 -584.953125 C 239.679688 -612.117188 294.742188 -625.703125 356.671875 -625.703125 C 406.328125 -625.703125 452.1875 -616.9375 494.25 -599.40625 C 536.320312 -581.882812 572.109375 -557.203125 601.609375 -525.359375 C 631.109375 -493.523438 651.992188 -455.992188 664.265625 -412.765625 L 514.40625 -412.765625 C 499.800781 -439.628906 478.914062 -460.507812 451.75 -475.40625 C 424.582031 -490.3125 393.765625 -497.765625 359.296875 -497.765625 C 323.660156 -497.765625 292.113281 -489.582031 264.65625 -473.21875 C 237.195312 -456.863281 215.722656 -434.375 200.234375 -405.75 C 184.753906 -377.125 177.015625 -344.113281 177.015625 -306.71875 C 177.015625 -269.914062 184.609375 -237.195312 199.796875 -208.5625 C 214.992188 -179.9375 236.320312 -157.296875 263.78125 -140.640625 C 291.238281 -123.992188 323.660156 -115.671875 361.046875 -115.671875 C 406.035156 -115.671875 443.425781 -127.0625 473.21875 -149.84375 C 503.019531 -172.632812 522.300781 -202.726562 531.0625 -240.125 L 332.140625 -240.125 L 332.140625 -347.90625 L 678.296875 -347.90625 C 681.796875 -295.320312 676.679688 -247.125 662.953125 -203.3125 C 649.222656 -159.5 628.191406 -121.378906 599.859375 -88.953125 C 571.523438 -56.523438 537.054688 -31.546875 496.453125 -14.015625 C 455.847656 3.503906 410.128906 12.265625 359.296875 12.265625 Z M 359.296875 12.265625 "/></g></g></g></g></g><g clip-path="url(#730997e676)"><g clip-path="url(#a1768872f5)"><g transform="matrix(1, 0, 0, 1, 242, 597)"><g clip-path="url(#e5694676f1)"><g clip-path="url(#dd11f2b8ff)"><g clip-path="url(#dfb823c5f3)"><path fill="#72383d" d="M 0.230469 0.316406 L 254.65625 0.316406 L 254.65625 365.0625 L 0.230469 365.0625 Z M 0.230469 0.316406 " fill-opacity="1" fill-rule="nonzero"/></g></g></g></g></g></g><g clip-path="url(#0d9d57613e)"><g clip-path="url(#598e0daf7a)"><g clip-path="url(#bdbf7fc779)"><g transform="matrix(1, 0, 0, 1, 918, 604)"><g clip-path="url(#fff226be5e)"><g clip-path="url(#c3fe450ff5)"><g clip-path="url(#e0de62ebab)"><g clip-path="url(#2de895a727)"><path fill="#72383d" d="M 214.957031 -53.613281 L 256.710938 110.851562 L 42.136719 165.324219 L 0.382812 0.859375 Z M 214.957031 -53.613281 " fill-opacity="1" fill-rule="nonzero"/></g></g></g></g></g></g></g></g><g fill="#ffd338" fill-opacity="1"><g transform="translate(548.833773, 1155.941472)"><g><path d="M 89.734375 -40.046875 C 89.867188 -39.515625 89.816406 -39.015625 89.578125 -38.546875 C 89.347656 -38.078125 89 -37.742188 88.53125 -37.546875 C 85.445312 -36.609375 81.78125 -35.484375 77.53125 -34.171875 C 73.289062 -32.867188 68.625 -31.445312 63.53125 -29.90625 C 62.863281 -26.226562 62.175781 -22.582031 61.46875 -18.96875 C 60.769531 -15.351562 60.117188 -11.84375 59.515625 -8.4375 C 57.910156 -0.0703125 56.503906 7.253906 55.296875 13.546875 C 54.097656 19.835938 53.195312 24.390625 52.59375 27.203125 C 52.394531 28.203125 51.757812 28.703125 50.6875 28.703125 C 50.550781 28.703125 50.414062 28.703125 50.28125 28.703125 C 49.8125 28.566406 49.425781 28.28125 49.125 27.84375 C 48.832031 27.414062 48.75 26.9375 48.875 26.40625 C 49.21875 24.53125 49.738281 21.832031 50.4375 18.3125 C 51.144531 14.800781 51.945312 10.6875 52.84375 5.96875 C 53.75 1.25 54.703125 -3.785156 55.703125 -9.140625 C 56.304688 -12.210938 56.910156 -15.390625 57.515625 -18.671875 C 58.117188 -21.953125 58.753906 -25.296875 59.421875 -28.703125 C 59.359375 -28.640625 59.304688 -28.609375 59.265625 -28.609375 C 59.234375 -28.609375 59.1875 -28.609375 59.125 -28.609375 C 52.757812 -26.671875 45.976562 -24.613281 38.78125 -22.4375 C 31.59375 -20.257812 24.488281 -18.066406 17.46875 -15.859375 C 15.0625 -4.347656 13.050781 5.519531 11.4375 13.75 C 9.832031 21.976562 8.507812 28.851562 7.46875 34.375 C 6.4375 39.894531 5.632812 44.328125 5.0625 47.671875 C 4.5 51.023438 4.082031 53.570312 3.8125 55.3125 C 4.945312 55.78125 5.316406 56.582031 4.921875 57.71875 C 4.585938 58.789062 4.203125 59.742188 3.765625 60.578125 C 3.328125 61.410156 2.707031 61.828125 1.90625 61.828125 C 1.707031 61.828125 1.472656 61.796875 1.203125 61.734375 C 0.203125 61.460938 -0.3125 60.757812 -0.34375 59.625 C -0.382812 58.488281 -0.238281 56.816406 0.09375 54.609375 C 0.5 51.523438 1.203125 47.140625 2.203125 41.453125 C 4.015625 31.617188 6.691406 17.898438 10.234375 0.296875 C 10.703125 -2.109375 11.1875 -4.566406 11.6875 -7.078125 C 12.195312 -9.585938 12.71875 -12.078125 13.25 -14.546875 C 10.507812 -13.679688 7.832031 -12.828125 5.21875 -11.984375 C 2.613281 -11.148438 0.0703125 -10.300781 -2.40625 -9.4375 C -10.101562 -6.894531 -16.226562 -4.769531 -20.78125 -3.0625 C -25.332031 -1.351562 -28.742188 0.015625 -31.015625 1.046875 C -33.285156 2.085938 -34.859375 2.910156 -35.734375 3.515625 C -35.066406 3.984375 -34.800781 4.617188 -34.9375 5.421875 C -35.132812 6.492188 -35.769531 7.03125 -36.84375 7.03125 C -36.96875 7.03125 -37.097656 6.992188 -37.234375 6.921875 C -38.578125 6.660156 -39.460938 6.242188 -39.890625 5.671875 C -40.328125 5.097656 -40.582031 4.546875 -40.65625 4.015625 C -40.65625 3.347656 -40.398438 2.675781 -39.890625 2 C -39.390625 1.332031 -38.367188 0.550781 -36.828125 -0.34375 C -35.296875 -1.25 -33.023438 -2.335938 -30.015625 -3.609375 C -24.390625 -5.953125 -16.328125 -8.898438 -5.828125 -12.453125 C -2.679688 -13.453125 0.546875 -14.488281 3.859375 -15.5625 C 7.171875 -16.632812 10.566406 -17.738281 14.046875 -18.875 C 15.316406 -25.03125 16.554688 -31.015625 17.765625 -36.828125 C 18.972656 -42.648438 20.109375 -48.085938 21.171875 -53.140625 C 22.242188 -58.203125 23.179688 -62.65625 23.984375 -66.5 C 24.785156 -70.34375 25.421875 -73.367188 25.890625 -75.578125 L 26.40625 -77.59375 C 27 -80.46875 27.28125 -82.585938 27.25 -83.953125 C 27.21875 -85.328125 27.097656 -86.234375 26.890625 -86.671875 C 26.691406 -87.109375 26.59375 -87.328125 26.59375 -87.328125 C 26.46875 -87.390625 26.019531 -87.300781 25.25 -87.0625 C 24.476562 -86.832031 23.289062 -86.015625 21.6875 -84.609375 C 19.34375 -82.609375 16.878906 -79.898438 14.296875 -76.484375 C 11.722656 -73.066406 9.429688 -69.519531 7.421875 -65.84375 C 5.285156 -61.832031 3.796875 -58.234375 2.953125 -55.046875 C 2.117188 -51.867188 2.035156 -49.445312 2.703125 -47.78125 C 2.835938 -47.445312 3.253906 -46.925781 3.953125 -46.21875 C 4.660156 -45.519531 6.15625 -45.238281 8.4375 -45.375 C 8.96875 -45.4375 9.429688 -45.28125 9.828125 -44.90625 C 10.234375 -44.539062 10.472656 -44.09375 10.546875 -43.5625 C 10.546875 -43.03125 10.375 -42.5625 10.03125 -42.15625 C 9.695312 -41.757812 9.265625 -41.5625 8.734375 -41.5625 C 5.648438 -41.351562 3.40625 -41.800781 2 -42.90625 C 0.601562 -44.007812 -0.363281 -45.164062 -0.90625 -46.375 C -1.707031 -48.382812 -1.835938 -50.828125 -1.296875 -53.703125 C -0.765625 -56.578125 0.21875 -59.632812 1.65625 -62.875 C 3.09375 -66.125 4.816406 -69.320312 6.828125 -72.46875 C 8.835938 -75.613281 10.925781 -78.507812 13.09375 -81.15625 C 15.269531 -83.800781 17.265625 -85.925781 19.078125 -87.53125 C 23.085938 -91.007812 26.226562 -92.046875 28.5 -90.640625 C 31.25 -89.035156 31.785156 -84.453125 30.109375 -76.890625 L 29.71875 -74.78125 C 27.4375 -64.070312 25.359375 -54.179688 23.484375 -45.109375 C 21.609375 -36.046875 19.867188 -27.734375 18.265625 -20.171875 C 25.023438 -22.242188 31.816406 -24.316406 38.640625 -26.390625 C 45.460938 -28.472656 51.921875 -30.453125 58.015625 -32.328125 C 58.347656 -32.390625 58.695312 -32.488281 59.0625 -32.625 C 59.4375 -32.757812 59.820312 -32.859375 60.21875 -32.921875 C 61.488281 -39.742188 62.773438 -46.519531 64.078125 -53.25 C 65.390625 -59.976562 66.644531 -66.351562 67.84375 -72.375 C 69.050781 -78.394531 70.171875 -83.742188 71.203125 -88.421875 C 72.242188 -93.109375 73.101562 -96.828125 73.78125 -99.578125 C 73.90625 -100.109375 74.203125 -100.503906 74.671875 -100.765625 C 75.140625 -101.035156 75.609375 -101.109375 76.078125 -100.984375 C 76.617188 -100.847656 77.019531 -100.546875 77.28125 -100.078125 C 77.550781 -99.609375 77.617188 -99.140625 77.484375 -98.671875 C 76.816406 -95.992188 76 -92.394531 75.03125 -87.875 C 74.0625 -83.363281 72.988281 -78.210938 71.8125 -72.421875 C 70.644531 -66.628906 69.425781 -60.472656 68.15625 -53.953125 C 66.882812 -47.429688 65.613281 -40.859375 64.34375 -34.234375 C 69.019531 -35.628906 73.316406 -36.910156 77.234375 -38.078125 C 81.148438 -39.253906 84.515625 -40.3125 87.328125 -41.25 C 87.796875 -41.382812 88.28125 -41.332031 88.78125 -41.09375 C 89.28125 -40.863281 89.597656 -40.515625 89.734375 -40.046875 Z M 89.734375 -40.046875 "/></g></g></g><g fill="#ffd338" fill-opacity="1"><g transform="translate(699.600387, 1155.941472)"><g><path d="M 88.734375 -96.5625 C 89.597656 -96.289062 90.046875 -95.738281 90.078125 -94.90625 C 90.117188 -94.070312 90.070312 -93.21875 89.9375 -92.34375 C 89.664062 -91.007812 89.265625 -89.066406 88.734375 -86.515625 C 88.191406 -84.046875 87.535156 -81.101562 86.765625 -77.6875 C 86.003906 -74.28125 85.15625 -70.535156 84.21875 -66.453125 C 82.8125 -60.359375 81.253906 -53.597656 79.546875 -46.171875 C 77.835938 -38.742188 76.128906 -31.046875 74.421875 -23.078125 C 72.722656 -15.117188 71.117188 -7.273438 69.609375 0.453125 C 68.109375 8.179688 66.820312 15.425781 65.75 22.1875 C 64.675781 28.945312 63.9375 34.800781 63.53125 39.75 C 63.195312 44.363281 63.398438 47.757812 64.140625 49.9375 C 64.878906 52.113281 65.484375 53.269531 65.953125 53.40625 C 66.148438 53.46875 66.515625 53.28125 67.046875 52.84375 C 67.585938 52.40625 68.238281 51.550781 69 50.28125 C 69.769531 49.007812 70.625 47.070312 71.5625 44.46875 C 71.769531 43.925781 72.109375 43.535156 72.578125 43.296875 C 73.046875 43.066406 73.546875 43.054688 74.078125 43.265625 C 74.546875 43.398438 74.894531 43.71875 75.125 44.21875 C 75.363281 44.71875 75.382812 45.203125 75.1875 45.671875 C 72.507812 53.429688 69.492188 57.3125 66.140625 57.3125 C 65.804688 57.3125 65.472656 57.28125 65.140625 57.21875 C 63.066406 56.75 61.546875 54.921875 60.578125 51.734375 C 59.609375 48.554688 59.320312 44.460938 59.71875 39.453125 C 60.050781 35.035156 60.648438 29.929688 61.515625 24.140625 C 62.390625 18.347656 63.445312 12.140625 64.6875 5.515625 C 65.925781 -1.109375 67.28125 -7.929688 68.75 -14.953125 C 70.226562 -21.984375 71.734375 -28.957031 73.265625 -35.875 C 74.804688 -42.800781 76.316406 -49.445312 77.796875 -55.8125 C 73.910156 -44.4375 69.941406 -33.929688 65.890625 -24.296875 C 61.847656 -14.660156 57.75 -6.023438 53.59375 1.609375 C 48.113281 11.773438 42.765625 19.800781 37.546875 25.6875 C 32.328125 31.582031 27.441406 35.097656 22.890625 36.234375 C 18.609375 37.234375 14.992188 36.160156 12.046875 33.015625 C 9.035156 29.804688 6.992188 24.789062 5.921875 17.96875 C 4.847656 11.144531 4.695312 2.832031 5.46875 -6.96875 C 6.238281 -16.78125 7.910156 -27.753906 10.484375 -39.890625 C 13.066406 -52.035156 16.53125 -65.003906 20.875 -78.796875 C 21.007812 -79.328125 21.3125 -79.707031 21.78125 -79.9375 C 22.25 -80.175781 22.75 -80.226562 23.28125 -80.09375 C 23.820312 -79.894531 24.207031 -79.5625 24.4375 -79.09375 C 24.675781 -78.625 24.726562 -78.15625 24.59375 -77.6875 C 18.164062 -57.207031 13.78125 -39.488281 11.4375 -24.53125 C 9.09375 -9.582031 8.320312 2.503906 9.125 11.734375 C 9.9375 20.972656 11.847656 27.164062 14.859375 30.3125 C 16.796875 32.382812 19.171875 33.085938 21.984375 32.421875 C 25.734375 31.484375 30.050781 28.253906 34.9375 22.734375 C 39.820312 17.210938 45.054688 9.285156 50.640625 -1.046875 C 56.222656 -11.390625 61.957031 -24.222656 67.84375 -39.546875 C 73.738281 -54.867188 79.5625 -72.734375 85.3125 -93.140625 C 85.3125 -93.140625 85.3125 -93.175781 85.3125 -93.25 C 85.71875 -94.25 86.132812 -95.132812 86.5625 -95.90625 C 87 -96.675781 87.722656 -96.894531 88.734375 -96.5625 Z M 88.734375 -96.5625 "/></g></g></g><g fill="#ffd338" fill-opacity="1"><g transform="translate(852.876277, 1155.941472)"><g><path d="M 82.90625 -41.046875 C 85.519531 -37.835938 87.34375 -34.054688 88.375 -29.703125 C 89.414062 -25.359375 89.648438 -20.726562 89.078125 -15.8125 C 88.515625 -10.894531 87.128906 -5.925781 84.921875 -0.90625 C 81.640625 6.65625 77.070312 13.242188 71.21875 18.859375 C 65.363281 24.484375 58.519531 28.96875 50.6875 32.3125 C 42.863281 35.664062 34.332031 37.675781 25.09375 38.34375 C 25.09375 38.34375 25.0625 38.34375 25 38.34375 C 23.789062 38.34375 23.15625 37.738281 23.09375 36.53125 C 23.019531 36 23.164062 35.53125 23.53125 35.125 C 23.90625 34.726562 24.328125 34.53125 24.796875 34.53125 C 33.554688 33.863281 41.632812 31.957031 49.03125 28.8125 C 56.425781 25.664062 62.898438 21.445312 68.453125 16.15625 C 74.003906 10.875 78.320312 4.6875 81.40625 -2.40625 C 83.414062 -6.957031 84.6875 -11.472656 85.21875 -15.953125 C 85.75 -20.441406 85.5625 -24.625 84.65625 -28.5 C 83.757812 -32.382812 82.175781 -35.765625 79.90625 -38.640625 C 76.15625 -43.253906 71 -46 64.4375 -46.875 C 61.625 -43.925781 58.425781 -41.03125 54.84375 -38.1875 C 51.269531 -35.34375 47.660156 -32.75 44.015625 -30.40625 C 40.367188 -28.070312 36.957031 -26.148438 33.78125 -24.640625 C 30.601562 -23.140625 27.941406 -22.253906 25.796875 -21.984375 C 24.328125 -14.753906 22.890625 -7.523438 21.484375 -0.296875 C 20.078125 6.929688 18.785156 13.753906 17.609375 20.171875 C 16.441406 26.597656 15.457031 32.351562 14.65625 37.4375 C 13.851562 42.519531 13.285156 46.601562 12.953125 49.6875 C 13.085938 49.351562 13.21875 49.019531 13.34375 48.6875 C 13.550781 48.144531 13.90625 47.773438 14.40625 47.578125 C 14.90625 47.378906 15.421875 47.378906 15.953125 47.578125 C 16.421875 47.773438 16.753906 48.125 16.953125 48.625 C 17.160156 49.132812 17.164062 49.625 16.96875 50.09375 C 15.894531 52.695312 14.972656 54.632812 14.203125 55.90625 C 13.429688 57.175781 12.578125 57.8125 11.640625 57.8125 C 11.367188 57.8125 11.101562 57.742188 10.84375 57.609375 C 10.375 57.484375 9.953125 57.132812 9.578125 56.5625 C 9.210938 55.988281 9.015625 54.847656 8.984375 53.140625 C 8.953125 51.441406 9.148438 48.867188 9.578125 45.421875 C 10.015625 41.972656 10.734375 37.335938 11.734375 31.515625 C 12.742188 25.691406 14.082031 18.328125 15.75 9.421875 C 17.425781 0.523438 19.535156 -10.242188 22.078125 -22.890625 C 21.742188 -23.148438 21.457031 -23.566406 21.21875 -24.140625 C 20.988281 -24.710938 20.972656 -25.46875 21.171875 -26.40625 C 21.847656 -28.8125 22.851562 -31.117188 24.1875 -33.328125 C 24.789062 -36.398438 25.425781 -39.554688 26.09375 -42.796875 C 26.757812 -46.046875 27.429688 -49.410156 28.109375 -52.890625 C 29.773438 -61.054688 31.328125 -68.648438 32.765625 -75.671875 C 34.210938 -82.703125 35.398438 -88.796875 36.328125 -93.953125 C 33.191406 -93.148438 30.25 -92.046875 27.5 -90.640625 C 20.144531 -87.085938 14.925781 -82.113281 11.84375 -75.71875 C 8.769531 -69.332031 8.101562 -62.128906 9.84375 -54.109375 C 9.96875 -53.566406 9.878906 -53.078125 9.578125 -52.640625 C 9.285156 -52.210938 8.90625 -51.929688 8.4375 -51.796875 C 7.894531 -51.660156 7.390625 -51.742188 6.921875 -52.046875 C 6.453125 -52.347656 6.1875 -52.765625 6.125 -53.296875 C 4.113281 -62.265625 4.832031 -70.3125 8.28125 -77.4375 C 11.726562 -84.5625 17.566406 -90.132812 25.796875 -94.15625 C 29.335938 -95.894531 33.117188 -97.195312 37.140625 -98.0625 C 37.203125 -98.394531 37.265625 -98.710938 37.328125 -99.015625 C 37.398438 -99.316406 37.472656 -99.632812 37.546875 -99.96875 C 37.609375 -100.507812 37.859375 -100.929688 38.296875 -101.234375 C 38.734375 -101.535156 39.21875 -101.617188 39.75 -101.484375 C 40.28125 -101.410156 40.695312 -101.15625 41 -100.71875 C 41.300781 -100.289062 41.382812 -99.804688 41.25 -99.265625 C 41.25 -99.203125 41.25 -99.132812 41.25 -99.0625 C 41.25 -99 41.25 -98.9375 41.25 -98.875 C 45.738281 -99.46875 50.15625 -99.515625 54.5 -99.015625 C 58.851562 -98.515625 62.800781 -97.460938 66.34375 -95.859375 C 69.894531 -94.253906 72.773438 -92.113281 74.984375 -89.4375 C 77.523438 -86.425781 78.976562 -83.210938 79.34375 -79.796875 C 79.71875 -76.378906 79.398438 -73 78.390625 -69.65625 C 77.390625 -66.3125 76.035156 -63.164062 74.328125 -60.21875 C 72.617188 -57.28125 70.960938 -54.738281 69.359375 -52.59375 C 68.828125 -51.789062 68.191406 -50.988281 67.453125 -50.1875 C 73.941406 -48.851562 79.09375 -45.804688 82.90625 -41.046875 Z M 26.59375 -26 C 28.132812 -26.46875 30.140625 -27.300781 32.609375 -28.5 C 35.085938 -29.707031 37.863281 -31.25 40.9375 -33.125 C 44.019531 -35 47.148438 -37.101562 50.328125 -39.4375 C 53.515625 -41.78125 56.515625 -44.328125 59.328125 -47.078125 C 56.710938 -47.078125 53.96875 -46.773438 51.09375 -46.171875 C 48.28125 -45.640625 45.398438 -44.753906 42.453125 -43.515625 C 39.515625 -42.273438 36.769531 -40.703125 34.21875 -38.796875 C 31.675781 -36.890625 29.535156 -34.597656 27.796875 -31.921875 C 27.597656 -30.910156 27.398438 -29.921875 27.203125 -28.953125 C 27.003906 -27.984375 26.800781 -27 26.59375 -26 Z M 62.9375 -50.890625 C 64.207031 -52.222656 65.34375 -53.5625 66.34375 -54.90625 C 71.226562 -61.53125 74.171875 -67.582031 75.171875 -73.0625 C 76.179688 -78.550781 75.144531 -83.171875 72.0625 -86.921875 C 70.0625 -89.328125 67.40625 -91.234375 64.09375 -92.640625 C 60.78125 -94.046875 57.066406 -94.929688 52.953125 -95.296875 C 48.835938 -95.671875 44.671875 -95.488281 40.453125 -94.75 C 39.515625 -89.601562 38.289062 -83.363281 36.78125 -76.03125 C 35.28125 -68.707031 33.660156 -60.757812 31.921875 -52.1875 C 31.515625 -50.1875 31.09375 -48.144531 30.65625 -46.0625 C 30.226562 -43.988281 29.8125 -41.882812 29.40625 -39.75 C 32.019531 -42.226562 35.113281 -44.335938 38.6875 -46.078125 C 42.269531 -47.816406 46.171875 -49.117188 50.390625 -49.984375 C 54.804688 -50.859375 58.988281 -51.160156 62.9375 -50.890625 Z M 62.9375 -50.890625 "/></g></g></g></svg>